<svg xmlns="http://www.w3.org/2000/svg" viewBox="0 0 100 100" fill="currentColor">
  <!-- Outer C arc with speed swish -->
  <path d="
    M 82 28
    C 78 16, 66 8, 50 8
    C 26 8, 8 26, 8 50
    C 8 74, 26 92, 50 92
    C 66 92, 78 84, 82 72
    L 72 72
    C 68 80, 60 85, 50 85
    C 30 85, 16 69, 16 50
    C 16 31, 30 15, 50 15
    C 60 15, 68 20, 72 28
    Z
  "/>
  <!-- Inner C -->
  <path d="
    M 74 34
    C 70 24, 61 17, 50 17
    C 32 17, 18 32, 18 50
    C 18 68, 32 83, 50 83
    C 61 83, 70 76, 74 66
    L 64 66
    C 61 72, 56 76, 50 76
    C 36 76, 25 64, 25 50
    C 25 36, 36 24, 50 24
    C 56 24, 61 28, 64 34
    Z
  "/>
  <!-- Speed swish on left -->
  <path d="
    M 10 44
    C 6 46, 4 48, 4 50
    C 4 52, 6 54, 10 56
    L 12 53
    C 9 52, 8 51, 8 50
    C 8 49, 9 48, 12 47
    Z
  "/>
</svg>
